<mxfile host="app.diagrams.net" modified="2023-02-03T07:28:14.777Z" agent="5.0 (Windows NT 10.0; Win64; x64) AppleWebKit/537.36 (KHTML, like Gecko) Chrome/109.0.0.0 Safari/537.36" etag="_5dBjVYrCq3F8qIYK_F9" version="20.8.16" type="github">
  <diagram name="Page-1" id="v6gZ-lDaImHFO4egWIVC">
    <mxGraphModel dx="880" dy="484" grid="1" gridSize="10" guides="1" tooltips="1" connect="1" arrows="1" fold="1" page="1" pageScale="1" pageWidth="850" pageHeight="1100" math="0" shadow="0">
      <root>
        <mxCell id="0" />
        <mxCell id="1" parent="0" />
        <mxCell id="nExcDsRf0GybJa3ijihV-1" value="joon" style="rounded=0;whiteSpace=wrap;html=1;" vertex="1" parent="1">
          <mxGeometry x="360" y="130" width="120" height="60" as="geometry" />
        </mxCell>
        <mxCell id="nExcDsRf0GybJa3ijihV-3" value="notification" style="rounded=0;whiteSpace=wrap;html=1;" vertex="1" parent="1">
          <mxGeometry x="360" y="250" width="120" height="60" as="geometry" />
        </mxCell>
        <mxCell id="nExcDsRf0GybJa3ijihV-4" value="ws-gateway" style="rounded=0;whiteSpace=wrap;html=1;" vertex="1" parent="1">
          <mxGeometry x="360" y="360" width="120" height="60" as="geometry" />
        </mxCell>
        <mxCell id="nExcDsRf0GybJa3ijihV-6" value="Joon-grpc" style="swimlane;whiteSpace=wrap;html=1;" vertex="1" parent="1">
          <mxGeometry x="70" y="205" width="210" height="150" as="geometry" />
        </mxCell>
        <mxCell id="nExcDsRf0GybJa3ijihV-7" value="- Đóng vai trò là route&lt;br&gt;&lt;br&gt;&lt;br&gt;- Quy định &lt;br&gt;request, response của API grpc" style="text;html=1;align=center;verticalAlign=middle;resizable=0;points=[];autosize=1;strokeColor=none;fillColor=none;" vertex="1" parent="nExcDsRf0GybJa3ijihV-6">
          <mxGeometry x="10" y="45" width="190" height="90" as="geometry" />
        </mxCell>
        <mxCell id="nExcDsRf0GybJa3ijihV-9" value="Nơi lưu Logic xử lý của API grpc" style="text;html=1;strokeColor=none;fillColor=none;align=center;verticalAlign=middle;whiteSpace=wrap;rounded=0;" vertex="1" parent="1">
          <mxGeometry x="480" y="145" width="180" height="30" as="geometry" />
        </mxCell>
        <mxCell id="nExcDsRf0GybJa3ijihV-10" value="" style="endArrow=classic;html=1;rounded=0;exitX=1;exitY=0.25;exitDx=0;exitDy=0;entryX=0;entryY=0.5;entryDx=0;entryDy=0;" edge="1" parent="1" source="nExcDsRf0GybJa3ijihV-6" target="nExcDsRf0GybJa3ijihV-1">
          <mxGeometry width="50" height="50" relative="1" as="geometry">
            <mxPoint x="400" y="240" as="sourcePoint" />
            <mxPoint x="450" y="190" as="targetPoint" />
          </mxGeometry>
        </mxCell>
        <mxCell id="nExcDsRf0GybJa3ijihV-11" value="Nơi lưu Logic xử lý của API grpc" style="text;html=1;strokeColor=none;fillColor=none;align=center;verticalAlign=middle;whiteSpace=wrap;rounded=0;" vertex="1" parent="1">
          <mxGeometry x="480" y="265" width="180" height="30" as="geometry" />
        </mxCell>
        <mxCell id="nExcDsRf0GybJa3ijihV-12" value="Nơi lưu Logic xử lý của API grpc" style="text;html=1;strokeColor=none;fillColor=none;align=center;verticalAlign=middle;whiteSpace=wrap;rounded=0;" vertex="1" parent="1">
          <mxGeometry x="480" y="375" width="180" height="30" as="geometry" />
        </mxCell>
        <mxCell id="nExcDsRf0GybJa3ijihV-14" value="" style="endArrow=classic;html=1;rounded=0;exitX=1;exitY=0.5;exitDx=0;exitDy=0;entryX=0;entryY=0.5;entryDx=0;entryDy=0;" edge="1" parent="1" source="nExcDsRf0GybJa3ijihV-6" target="nExcDsRf0GybJa3ijihV-3">
          <mxGeometry width="50" height="50" relative="1" as="geometry">
            <mxPoint x="400" y="240" as="sourcePoint" />
            <mxPoint x="450" y="190" as="targetPoint" />
          </mxGeometry>
        </mxCell>
        <mxCell id="nExcDsRf0GybJa3ijihV-15" value="" style="endArrow=classic;html=1;rounded=0;exitX=1;exitY=0.75;exitDx=0;exitDy=0;entryX=0;entryY=0.5;entryDx=0;entryDy=0;" edge="1" parent="1" source="nExcDsRf0GybJa3ijihV-6" target="nExcDsRf0GybJa3ijihV-4">
          <mxGeometry width="50" height="50" relative="1" as="geometry">
            <mxPoint x="400" y="240" as="sourcePoint" />
            <mxPoint x="450" y="190" as="targetPoint" />
          </mxGeometry>
        </mxCell>
      </root>
    </mxGraphModel>
  </diagram>
</mxfile>
